<svg xmlns="http://www.w3.org/2000/svg" width="1076" height="769.09" viewBox="0 0 1076 769.09">
  <g id="Group_19" data-name="Group 19" transform="translate(0)">
    <path id="Path_4" data-name="Path 4" d="M232.522,691.454c0,43.379-25.788,58.525-57.6,58.525s-57.6-15.146-57.6-58.525,57.6-98.565,57.6-98.565S232.522,648.076,232.522,691.454Z" transform="translate(-117.324 -49.077)" fill="#f2f2f2"/>
    <path id="Path_5" data-name="Path 5" d="M52.175,638.345l.59-36.3,24.551-44.914L52.857,596.345l.265-16.324,16.92-32.494L53.192,575.7h0l.477-29.36,18.118-25.869L53.744,541.726l.3-53.834-1.873,71.266.154-2.939-18.42-28.2,18.125,33.84-1.717,32.79-.05-.871L29.024,564.109,50.2,596.856l-.215,4.1-.038.061.018.337-4.355,83.19h5.818l.7-42.969,21.12-32.667Z" transform="translate(3.327 55.921)" fill="#3f3d56"/>
    <path id="Path_6" data-name="Path 6" d="M680.1,190.005c151.225,120.5,176.132,340.777,55.632,492s-487.5,248.943-492,55.632c-4.531-194.549-104.641-376.865-55.632-492C263.827,67.722,528.873,69.505,680.1,190.005Z" transform="translate(-110.756 -104.999)" fill="#5cf291" opacity="0.18"/>
    <ellipse id="Ellipse_7" data-name="Ellipse 7" cx="160.505" cy="26.751" rx="160.505" ry="26.751" transform="translate(7.081 715.588)" fill="#4d4d4d"/>
    <ellipse id="Ellipse_8" data-name="Ellipse 8" cx="79.042" cy="13.174" rx="79.042" ry="13.174" transform="translate(909.359 720.196)" fill="#2e2e2e"/>
    <path id="Path_23" data-name="Path 23" d="M0,0H916.216V494.89H0Z" transform="translate(159.784 178.342)"/>
    <rect id="Rectangle_40" data-name="Rectangle 40" width="916.216" height="45.699" transform="translate(159.784 138.216)" fill="#2c2c2c"/>
    <circle id="Ellipse_9" data-name="Ellipse 9" cx="7.802" cy="7.802" r="7.802" transform="translate(174.274 150.477)" fill="#5cf291"/>
    <circle id="Ellipse_10" data-name="Ellipse 10" cx="7.802" cy="7.802" r="7.802" transform="translate(196.566 150.477)" fill="#5cf291"/>
    <circle id="Ellipse_11" data-name="Ellipse 11" cx="7.802" cy="7.802" r="7.802" transform="translate(218.859 150.477)" fill="#5cf291"/>
    <rect id="Rectangle_41" data-name="Rectangle 41" width="916.216" height="5.573" transform="translate(159.784 178.342)" opacity="0.1"/>
    <rect id="Rectangle_42" data-name="Rectangle 42" width="180.568" height="192.829" transform="translate(212.728 256.923)" fill="#d9d9d9" opacity="0.3"/>
    <rect id="Rectangle_43" data-name="Rectangle 43" width="180.568" height="192.829" transform="translate(224.989 243.547)" fill="#5cf291"/>
    <rect id="Rectangle_44" data-name="Rectangle 44" width="138.818" height="148.244" transform="translate(874.811 253.83)" fill="#d9d9d9" opacity="0.3"/>
    <rect id="Rectangle_45" data-name="Rectangle 45" width="138.818" height="148.244" transform="translate(884.236 243.547)" fill="#5cf291"/>
    <rect id="Rectangle_46" data-name="Rectangle 46" width="138.818" height="148.244" transform="translate(874.811 459.783)" fill="#d9d9d9" opacity="0.3"/>
    <rect id="Rectangle_47" data-name="Rectangle 47" width="138.818" height="148.244" transform="translate(884.236 449.5)" fill="#5cf291"/>
    <rect id="Rectangle_48" data-name="Rectangle 48" width="344.417" height="13.375" transform="translate(469.09 243.547)" fill="#5cf291"/>
    <rect id="Rectangle_49" data-name="Rectangle 49" width="344.417" height="13.375" transform="translate(469.09 282.559)" fill="#5cf291"/>
    <rect id="Rectangle_50" data-name="Rectangle 50" width="344.417" height="13.375" transform="translate(469.09 321.571)" fill="#5cf291"/>
    <rect id="Rectangle_51" data-name="Rectangle 51" width="344.417" height="13.375" transform="translate(469.09 360.582)" fill="#5cf291"/>
    <rect id="Rectangle_52" data-name="Rectangle 52" width="344.417" height="13.375" transform="translate(469.09 399.594)" fill="#5cf291"/>
    <rect id="Rectangle_53" data-name="Rectangle 53" width="344.417" height="13.375" transform="translate(469.09 438.605)" fill="#5cf291"/>
    <rect id="Rectangle_54" data-name="Rectangle 54" width="344.417" height="13.375" transform="translate(469.09 477.617)" fill="#5cf291"/>
    <rect id="Rectangle_55" data-name="Rectangle 55" width="344.417" height="13.375" transform="translate(469.09 516.629)" fill="#5cf291"/>
    <rect id="Rectangle_56" data-name="Rectangle 56" width="344.417" height="13.375" transform="translate(469.09 555.64)" fill="#5cf291"/>
    <rect id="Rectangle_57" data-name="Rectangle 57" width="344.417" height="13.375" transform="translate(469.09 594.652)" fill="#5cf291"/>
    <circle id="Ellipse_12" data-name="Ellipse 12" cx="23.964" cy="23.964" r="23.964" transform="translate(116.855 300.815)" fill="#a0616a"/>
    <path id="Path_7" data-name="Path 7" d="M230.22,406.5s0,25.374-4.229,28.193,33.832,5.639,33.832,5.639V407.908Z" transform="translate(-104.906 -70.441)" fill="#a0616a"/>
    <path id="Path_8" data-name="Path 8" d="M188.015,533.984S214.8,565,220.438,565s11.278-21.145,11.278-21.145l-26.784-19.735Z" transform="translate(-109.221 -56.96)" fill="#a0616a"/>
    <path id="Path_9" data-name="Path 9" d="M308.163,414.154l4.229-29.6s2.819-40.88,11.277-31.013,2.819,32.422,2.819,32.422,4.229,32.422,0,36.651S308.163,414.154,308.163,414.154Z" transform="translate(-95.45 -76.688)" fill="#a0616a"/>
    <path id="Path_10" data-name="Path 10" d="M295.268,551.4l-76.122-7.048s-9.868,46.519-7.048,64.845,4.229,70.483,4.229,70.483,2.819,94.448,7.048,100.087S241.7,784,245.929,786.814s11.277-5.639,11.277-7.048-8.458-1.41-4.229-9.868-11.277-32.422-7.048-43.7,11.277-26.784,7.048-32.422,2.819-77.532,2.819-77.532,35.242,50.748,35.242,73.3-2.819,74.713-4.229,80.351-2.819,7.048,0,11.277,5.639,8.458,4.229,9.868,25.374,0,25.374-8.458-1.41-8.458,1.41-15.506,4.229-91.628,4.229-91.628Z" transform="translate(-106.519 -54.641)"/>
    <path id="Path_11" data-name="Path 11" d="M231.176,422.939l-4.229,8.458s-45.109,14.1-46.519,43.7l38.061,63.435s2.819,4.229,1.41,7.048-2.819,1.41-1.41,5.639,1.41,2.819,1.41,5.639-4.229,1.41,0,2.819-1.41,0,14.1,4.229,62.025,2.819,62.025,2.819l-8.458-81.761,8.458-16.916-11.277-33.832s-7.048-1.41-11.277,1.41-9.868-2.819-9.868-2.819S256.55,422.939,231.176,422.939Z" transform="translate(-110.091 -68.557)" fill="#e9e9e9"/>
    <path id="Path_12" data-name="Path 12" d="M267.692,437.74l7.048-1.41s28.193-8.458,29.6-15.506,8.458-15.506,8.458-15.506,22.555-5.639,21.145,12.687-7.048,23.964-9.868,26.784-33.831,25.374-39.47,25.374S267.692,437.74,267.692,437.74Z" transform="translate(-100.089 -70.67)" fill="#e9e9e9"/>
    <path id="Path_13" data-name="Path 13" d="M183.949,464.675l-2.819,5.639-1.41,50.748s-8.458,5.639-4.229,8.458,14.1,15.506,16.916,15.506,18.326-7.048,18.326-9.868-2.819-28.193-2.819-28.193Z" transform="translate(-110.792 -63.773)" fill="#e9e9e9"/>
    <path id="Path_14" data-name="Path 14" d="M230.061,755.558s0,14.1-1.41,16.916-4.229,16.916,4.229,16.916a34.206,34.206,0,0,0,14.1-2.819s0-8.458,4.229-9.868,14.1-12.687,9.868-15.506-12.687-5.639-12.687-5.639Z" transform="translate(-104.747 -30.433)"/>
    <path id="Path_15" data-name="Path 15" d="M284.521,762.752s-8.458,19.735,0,21.145,19.735,0,21.145-2.819,4.229-5.639,7.048-4.229,26.783-15.507,18.325-18.326a24.407,24.407,0,0,0-15.506,0l-8.458-4.229Z" transform="translate(-98.591 -30.578)"/>
    <path id="Path_16" data-name="Path 16" d="M249.705,426.115a2.9,2.9,0,0,0,1.147-.317,2.964,2.964,0,0,0,1.069-1.85l2.879-10.2c1.092-3.87,2.847-8.391,6.784-9.209a6.4,6.4,0,0,0,2.376-.632,4.113,4.113,0,0,0,1.29-3.182l1.234-13.184c.334-3.564.65-7.271-.593-10.627-1.834-4.952-6.862-8.212-12.059-9.149s-10.55.111-15.609,1.626c-7.673,2.3-15.619,6.256-18.953,13.539-1.93,4.217-2.049,9.025-1.791,13.655.266,4.768.929,9.628,3.12,13.87a41.579,41.579,0,0,0,4.225,6.21c2.38,3.08,5.3,9.1,9.237,10.251C238.5,428.214,245.205,426.7,249.705,426.115Z" transform="translate(-105.856 -74.922)"/>
    <path id="Path_17" data-name="Path 17" d="M947.429,688.571c0,42.388,26.592,76.688,59.454,76.688" transform="translate(-22.179 -38.111)" fill="#2e2e2e"/>
    <path id="Path_18" data-name="Path 18" d="M1000.77,765.347c0-42.864,29.675-77.549,66.348-77.549" transform="translate(-16.065 -38.199)" fill="#d2d2d2"/>
    <path id="Path_19" data-name="Path 19" d="M966.755,692.018c0,40.264,16.957,72.845,37.913,72.845" transform="translate(-19.964 -37.716)" fill="#d2d2d2"/>
    <path id="Path_20" data-name="Path 20" d="M1000.77,767.563c0-54.771,34.3-99.091,76.688-99.091" transform="translate(-16.065 -40.414)" fill="#2e2e2e"/>
    <path id="Path_21" data-name="Path 21" d="M989.548,758.326s8.432-.26,10.973-2.069,12.97-3.97,13.6-1.068,12.671,14.433,3.152,14.51-22.119-1.483-24.655-3.028S989.548,758.326,989.548,758.326Z" transform="translate(-17.351 -30.638)" fill="#a8a8a8"/>
    <path id="Path_22" data-name="Path 22" d="M1017.438,768.222c-9.519.077-22.118-1.483-24.655-3.028-1.931-1.177-2.7-5.4-2.959-7.346l-.281.011s.534,6.8,3.07,8.345,15.135,3.1,24.655,3.028c2.748-.022,3.7-1,3.645-2.448C1020.537,767.659,1019.489,768.2,1017.438,768.222Z" transform="translate(-17.352 -30.17)" opacity="0.2"/>
  </g>
</svg>
