<svg xmlns="http://www.w3.org/2000/svg" width="38.386" height="38.386" viewBox="0 0 38.386 38.386">
  <g id="Group_22" data-name="Group 22" transform="translate(-1833.5 -406.5)">
    <g id="Icon_feather-instagram" data-name="Icon feather-instagram" transform="translate(1835 408)">
      <path id="Path_1" data-name="Path 1" d="M11.847,3H29.54a8.847,8.847,0,0,1,8.847,8.847V29.54a8.847,8.847,0,0,1-8.847,8.847H11.847A8.847,8.847,0,0,1,3,29.54V11.847A8.847,8.847,0,0,1,11.847,3Z" transform="translate(-3 -3)" fill="none" stroke="#000" stroke-linecap="round" stroke-linejoin="round" stroke-width="3"/>
      <path id="Path_2" data-name="Path 2" d="M26.143,17.974a7.077,7.077,0,1,1-5.963-5.963,7.077,7.077,0,0,1,5.963,5.963Z" transform="translate(-1.372 -1.396)" fill="none" stroke="#000" stroke-linecap="round" stroke-linejoin="round" stroke-width="3"/>
      <path id="Path_3" data-name="Path 3" d="M26.25,9.75h0" transform="translate(1.174 -1.788)" fill="none" stroke="#000" stroke-linecap="round" stroke-linejoin="round" stroke-width="3"/>
    </g>
  </g>
</svg>
