<svg id="Layer_1" data-name="Layer 1" xmlns="http://www.w3.org/2000/svg" viewBox="0 0 503.5 595.28"><defs><style>.cls-1{fill:#fff;}</style></defs><title>logo reactive ALB</title><rect class="cls-1" y="403.24" width="244.88" height="100.71"/><path class="cls-1" d="M145.67,0V364.21h321.4c100.57,0,182.1-81.53,182.1-182.11h0A182.1,182.1,0,0,0,467.07,0ZM467.05,263.49H246.35V100.68h220.7a81.41,81.41,0,0,1,81.41,81.41h0A81.41,81.41,0,0,1,467.05,263.49Z" transform="translate(-145.67)"/><path class="cls-1" d="M509.87,403h38.59A100.71,100.71,0,0,1,649.17,503.73H509.87Z" transform="translate(-145.67)"/><path class="cls-1" d="M167.43,578.21h-4.69v16.22H145.67V540.66h25.09a23.77,23.77,0,0,1,8.49,1.45,19.73,19.73,0,0,1,6.49,4,17.45,17.45,0,0,1,4.14,5.93,18.93,18.93,0,0,1,1.45,7.43,15.11,15.11,0,0,1-1.33,6.61,17.22,17.22,0,0,1-2.94,4.48,15.33,15.33,0,0,1-4.27,3.42l12,20.48H176Zm1.62-14.93a4.46,4.46,0,0,0,3.16-1.11,3.71,3.71,0,0,0,0-5.46,4.46,4.46,0,0,0-3.16-1.11h-6.31v7.68Z" transform="translate(-145.67)"/><path class="cls-1" d="M198.58,540.66H240.4v14.51H215.65v5.12h22.61V574H215.65v6h25.6v14.51H198.58Z" transform="translate(-145.67)"/><path class="cls-1" d="M263.86,585l-2.56,9.39H243l17.93-53.77h20.48l17.92,53.77H280.93L278.37,585Zm7.26-26.45-3.42,12.8h6.83Z" transform="translate(-145.67)"/><path class="cls-1" d="M327.44,579.07a9.39,9.39,0,0,0,4.32-.9,11.73,11.73,0,0,0,2.94-2.09,11.41,11.41,0,0,0,2.13-3l17.07,1.71A27.16,27.16,0,0,1,349.29,585a28.47,28.47,0,0,1-3.41,3.8,21.77,21.77,0,0,1-4.61,3.24,27.92,27.92,0,0,1-6.06,2.31,31,31,0,0,1-7.77.89,28.4,28.4,0,0,1-20-8.11,27.6,27.6,0,0,1-6-8.79,27.92,27.92,0,0,1,0-21.63,27.55,27.55,0,0,1,6-8.83,28.4,28.4,0,0,1,20-8.11,31,31,0,0,1,7.77.89,27.92,27.92,0,0,1,6.06,2.31,20.86,20.86,0,0,1,4.61,3.28,36.13,36.13,0,0,1,3.41,3.76,27.16,27.16,0,0,1,4.61,10.24L336.83,562a13.81,13.81,0,0,0-2.13-3,14.48,14.48,0,0,0-2.94-2,9.14,9.14,0,0,0-4.32-.94,10.19,10.19,0,0,0-4.22.9,11.35,11.35,0,0,0-3.54,2.47,12,12,0,0,0-2.43,3.67,11.63,11.63,0,0,0,0,9,11.88,11.88,0,0,0,2.43,3.66,11.22,11.22,0,0,0,3.54,2.48A10.19,10.19,0,0,0,327.44,579.07Z" transform="translate(-145.67)"/><path class="cls-1" d="M388,594.43H371V556.88H356.89V540.66h45.22v16.22H388Z" transform="translate(-145.67)"/><path class="cls-1" d="M424.73,594.43H407.66V540.66h17.07Z" transform="translate(-145.67)"/><path class="cls-1" d="M482.76,540.66l-16.64,53.77H445.64L429,540.66h18.34l8.54,32.43,8.53-32.43Z" transform="translate(-145.67)"/><path class="cls-1" d="M487,540.66h41.81v14.51H504.1v5.12h22.61V574H504.1v6h25.6v14.51H487Z" transform="translate(-145.67)"/><path class="cls-1" d="M595.41,578.21v16.22H555.3v-11.1L572.79,565a23.13,23.13,0,0,0,2.13-2.23,16.05,16.05,0,0,0,1.46-2.09,4.19,4.19,0,0,0,.68-2.08,2.28,2.28,0,0,0-.85-1.93,3.55,3.55,0,0,0-2.14-.64,3.17,3.17,0,0,0-2.35,1.16,4.38,4.38,0,0,0-1.06,3.11L554,558.59a20,20,0,0,1,1.7-7.43,18.13,18.13,0,0,1,4.27-5.93,20.13,20.13,0,0,1,6.53-4,23.29,23.29,0,0,1,8.4-1.45,25.24,25.24,0,0,1,8.58,1.37,19.85,19.85,0,0,1,6.45,3.67,15.72,15.72,0,0,1,4,5.41,15.9,15.9,0,0,1,1.41,6.62,14.68,14.68,0,0,1-1.54,6.65,29,29,0,0,1-3.41,5.38,40.69,40.69,0,0,1-4.87,5l-4.27,4.26Z" transform="translate(-145.67)"/><path class="cls-1" d="M649.17,567.55a33.38,33.38,0,0,1-1.88,11.52,26.38,26.38,0,0,1-5.16,8.74,22.26,22.26,0,0,1-7.72,5.55,24.76,24.76,0,0,1-19.12,0,22.17,22.17,0,0,1-7.72-5.55,26.57,26.57,0,0,1-5.17-8.74,36.45,36.45,0,0,1,0-23.05,26.57,26.57,0,0,1,5.17-8.74,22.17,22.17,0,0,1,7.72-5.55,24.76,24.76,0,0,1,19.12,0,22.26,22.26,0,0,1,7.72,5.55,26.38,26.38,0,0,1,5.16,8.74A33.4,33.4,0,0,1,649.17,567.55Zm-17.07,0c0-4-.72-7-2.18-8.79a6.07,6.07,0,0,0-10.15,0q-2.17,2.73-2.18,8.79c0,4,.73,7,2.18,8.78a6.07,6.07,0,0,0,10.15,0C631.38,574.52,632.1,571.58,632.1,567.55Z" transform="translate(-145.67)"/></svg>