<svg xmlns="http://www.w3.org/2000/svg" xmlns:xlink="http://www.w3.org/1999/xlink" width="371" height="758.631" viewBox="0 0 371 758.631">
  <defs>
    <linearGradient id="linear-gradient" x1="-0.006" y1="0.497" x2="1" y2="0.503" gradientUnits="objectBoundingBox">
      <stop offset="0"/>
      <stop offset="1" stop-color="#2aff4a"/>
    </linearGradient>
    <linearGradient id="linear-gradient-2" x1="0.088" y1="0.495" x2="23.418" y2="0.775" xlink:href="#linear-gradient"/>
    <linearGradient id="linear-gradient-3" x1="0" y1="0.454" x2="1" y2="0.546" xlink:href="#linear-gradient"/>
    <linearGradient id="linear-gradient-4" x1="-0.001" y1="0.497" x2="1.005" y2="0.503" xlink:href="#linear-gradient"/>
    <linearGradient id="linear-gradient-5" x1="-22.428" y1="0.225" x2="0.904" y2="0.505" xlink:href="#linear-gradient"/>
  </defs>
  <g id="Group_31" data-name="Group 31" transform="translate(-21 -4839)">
    <g id="Group_25" data-name="Group 25" transform="translate(0 1304)">
      <g id="_20356_Converted_" data-name="20356 [Converted]" transform="translate(248.391 3665.836) rotate(90)">
        <g id="Group_8" data-name="Group 8" transform="translate(0 33.382)">
          <g id="Group_6" data-name="Group 6" transform="translate(5.005)">
            <path id="Path_34" data-name="Path 34" d="M4.2.44A34.846,34.846,0,0,0,3.63,6.819a1.815,1.815,0,1,1-3.63,0A38.329,38.329,0,0,1,.568.128,5.643,5.643,0,0,1,1.815,0,6.473,6.473,0,0,1,4.2.44Z" fill="url(#linear-gradient)"/>
          </g>
          <g id="Group_7" data-name="Group 7">
            <path id="Path_35" data-name="Path 35" d="M13.639,6.819A6.819,6.819,0,1,1,5.573.128,5.643,5.643,0,0,1,6.819,0,6.473,6.473,0,0,1,9.2.44,6.815,6.815,0,0,1,13.639,6.819Z" fill="url(#linear-gradient-2)"/>
          </g>
        </g>
        <g id="Group_11" data-name="Group 11" transform="translate(5.573 0)">
          <g id="Group_9" data-name="Group 9">
            <path id="Path_36" data-name="Path 36" d="M616.649,46.893A40.2,40.2,0,0,1,536.814,40.2a36.572,36.572,0,0,0-73.144,0,40.193,40.193,0,1,1-80.386,0,36.572,36.572,0,1,0-73.144,0,40.2,40.2,0,0,1-80.4,0,36.572,36.572,0,1,0-73.144,0,40.2,40.2,0,0,1-80.4,0A36.558,36.558,0,0,0,3.63,33.822a6.473,6.473,0,0,0-2.383-.44A5.643,5.643,0,0,0,0,33.511,40.188,40.188,0,0,1,79.817,40.2a36.572,36.572,0,1,0,73.144,0,40.2,40.2,0,1,1,80.4,0,36.572,36.572,0,0,0,73.144,0,40.2,40.2,0,1,1,80.4,0,36.572,36.572,0,1,0,73.144,0,40.193,40.193,0,1,1,80.386,0,36.568,36.568,0,0,0,72.576,6.38,6.473,6.473,0,0,0,2.383.44A5.643,5.643,0,0,0,616.649,46.893Z" fill="url(#linear-gradient-3)"/>
            <path id="Path_37" data-name="Path 37" d="M4.2,1.815A38.331,38.331,0,0,1,3.63,8.506a5.643,5.643,0,0,1-1.247.128A6.473,6.473,0,0,1,0,8.194a34.847,34.847,0,0,0,.568-6.38,1.815,1.815,0,1,1,3.63,0Z" transform="translate(613.02 38.387)" fill="url(#linear-gradient-4)"/>
          </g>
          <g id="Group_10" data-name="Group 10" transform="translate(608.583 33.382)">
            <path id="Path_38" data-name="Path 38" d="M13.639,6.819a6.8,6.8,0,0,1-5.573,6.691,5.643,5.643,0,0,1-1.247.128,6.473,6.473,0,0,1-2.383-.44,6.815,6.815,0,1,1,9.2-6.38Z" transform="translate(0)" fill="url(#linear-gradient-5)"/>
          </g>
        </g>
      </g>
      <text id="_1" data-name="1" transform="translate(198.786 3727.508)" fill="#090909" font-size="50" font-family="TTCommons-Bold, TT Commons" font-weight="700"><tspan x="0" y="0">1</tspan></text>
      <text id="_4" data-name="4" transform="translate(193.937 3954.673)" fill="#090909" font-size="52" font-family="TTCommons-Bold, TT Commons" font-weight="700"><tspan x="0" y="0">4</tspan></text>
      <text id="_2" data-name="2" transform="translate(194.378 3801.251)" fill="#090909" font-size="52" font-family="TTCommons-Bold, TT Commons" font-weight="700"><tspan x="0" y="0">2</tspan></text>
      <text id="_5" data-name="5" transform="translate(194 4033)" fill="#090909" font-size="53" font-family="TTCommons-Bold, TT Commons" font-weight="700"><tspan x="0" y="0">5</tspan></text>
      <text id="_3" data-name="3" transform="translate(195 3879)" fill="#090909" font-size="53" font-family="TTCommons-Bold, TT Commons" font-weight="700"><tspan x="0" y="0">3</tspan></text>
      <text id="_6" data-name="6" transform="translate(194 4110)" fill="#090909" font-size="53" font-family="TTCommons-Bold, TT Commons" font-weight="700"><tspan x="0" y="0">6</tspan></text>
      <text id="_7" data-name="7" transform="translate(195 4189)" fill="#090909" font-size="53" font-family="TTCommons-Bold, TT Commons" font-weight="700"><tspan x="0" y="0">7</tspan></text>
      <rect id="Rectangle_129" data-name="Rectangle 129" width="63" height="4" transform="translate(170 3677) rotate(90)"/>
      <rect id="Rectangle_125" data-name="Rectangle 125" width="64" height="4" transform="translate(170 3832) rotate(90)"/>
      <rect id="Rectangle_126" data-name="Rectangle 126" width="63" height="4" transform="translate(170 3986) rotate(90)"/>
      <rect id="Rectangle_127" data-name="Rectangle 127" width="63" height="4" transform="translate(170 4143) rotate(90)"/>
      <text id="Lorem_ipsum_dolor_sit_amet_consetetur_sadipscing_elitr_sed_diam_nonumy_eirmod_tempor_invidunt_ut_labore_et_dolore_magna_aliquyam_erat_sed_diam_voluptua._At_vero_eos_et_accusam_et_justo_duo_dolores_et_ea_rebum._Stet_clita_kasd_gubergren_no_sea_takimata_" data-name="Lorem ipsum dolor sit amet, consetetur sadipscing elitr, sed diam nonumy eirmod tempor invidunt ut labore et dolore magna aliquyam erat, sed diam voluptua. At vero eos et accusam et justo duo dolores et ea rebum. Stet clita kasd gubergren, no sea takimata " transform="translate(22 3702)" font-size="12" font-family="TTCommons-Regular, TT Commons"><tspan x="0" y="8">Lorem ipsum dolor sit amet, </tspan><tspan x="0" y="24">consetetur sadipscing elitr, </tspan><tspan x="0" y="40">sed diam nonumy eirmod </tspan></text>
      <text id="Lorem_ipsum_dolor_sit_amet_consetetur_sadipscing_elitr_sed_diam_nonumy_eirmod_tempor_invidunt_ut_labore_et_dolore_magna_aliquyam_erat_sed_diam_voluptua._At_vero_eos_et_accusam_et_justo_duo_dolores_et_ea_rebum._Stet_clita_kasd_gubergren_no_sea_takimata_2" data-name="Lorem ipsum dolor sit amet, consetetur sadipscing elitr, sed diam nonumy eirmod tempor invidunt ut labore et dolore magna aliquyam erat, sed diam voluptua. At vero eos et accusam et justo duo dolores et ea rebum. Stet clita kasd gubergren, no sea takimata " transform="translate(22 3857)" font-size="12" font-family="TTCommons-Regular, TT Commons"><tspan x="0" y="8">Lorem ipsum dolor sit amet, </tspan><tspan x="0" y="24">consetetur sadipscing elitr, </tspan><tspan x="0" y="40">sed diam nonumy eirmod </tspan></text>
      <text id="Lorem_ipsum_dolor_sit_amet_consetetur_sadipscing_elitr_sed_diam_nonumy_eirmod_tempor_invidunt_ut_labore_et_dolore_magna_aliquyam_erat_sed_diam_voluptua._At_vero_eos_et_accusam_et_justo_duo_dolores_et_ea_rebum._Stet_clita_kasd_gubergren_no_sea_takimata_3" data-name="Lorem ipsum dolor sit amet, consetetur sadipscing elitr, sed diam nonumy eirmod tempor invidunt ut labore et dolore magna aliquyam erat, sed diam voluptua. At vero eos et accusam et justo duo dolores et ea rebum. Stet clita kasd gubergren, no sea takimata " transform="translate(22 4011)" font-size="12" font-family="TTCommons-Regular, TT Commons"><tspan x="0" y="8">Lorem ipsum dolor sit amet, </tspan><tspan x="0" y="24">consetetur sadipscing elitr, </tspan><tspan x="0" y="40">sed diam nonumy eirmod </tspan></text>
      <text id="Lorem_ipsum_dolor_sit_amet_consetetur_sadipscing_elitr_sed_diam_nonumy_eirmod_tempor_invidunt_ut_labore_et_dolore_magna_aliquyam_erat_sed_diam_voluptua._At_vero_eos_et_accusam_et_justo_duo_dolores_et_ea_rebum._Stet_clita_kasd_gubergren_no_sea_takimata_4" data-name="Lorem ipsum dolor sit amet, consetetur sadipscing elitr, sed diam nonumy eirmod tempor invidunt ut labore et dolore magna aliquyam erat, sed diam voluptua. At vero eos et accusam et justo duo dolores et ea rebum. Stet clita kasd gubergren, no sea takimata " transform="translate(22 4166)" font-size="12" font-family="TTCommons-Regular, TT Commons"><tspan x="0" y="8">Lorem ipsum dolor sit amet, </tspan><tspan x="0" y="24">consetetur sadipscing elitr, </tspan><tspan x="0" y="40">sed diam nonumy eirmod </tspan></text>
      <text id="Lorem_ipsum_dolor_sit_amet_consetetur_sadipscing_elitr_sed_diam_nonumy_eirmod_tempor_invidunt_ut_labore_et_dolore_magna_aliquyam_erat_sed_diam_voluptua._At_vero_eos_et_accusam_et_justo_duo_dolores_et_ea_rebum._Stet_clita_kasd_gubergren_no_sea_takimata_5" data-name="Lorem ipsum dolor sit amet, consetetur sadipscing elitr, sed diam nonumy eirmod tempor invidunt ut labore et dolore magna aliquyam erat, sed diam voluptua. At vero eos et accusam et justo duo dolores et ea rebum. Stet clita kasd gubergren, no sea takimata " transform="translate(259 3780)" font-size="12" font-family="TTCommons-Regular, TT Commons"><tspan x="0" y="8">Lorem ipsum dolor sit amet, </tspan><tspan x="0" y="24">consetetur sadipscing elitr, </tspan><tspan x="0" y="40">sed diam nonumy eirmod </tspan></text>
      <text id="Lorem_ipsum_dolor_sit_amet_consetetur_sadipscing_elitr_sed_diam_nonumy_eirmod_tempor_invidunt_ut_labore_et_dolore_magna_aliquyam_erat_sed_diam_voluptua._At_vero_eos_et_accusam_et_justo_duo_dolores_et_ea_rebum._Stet_clita_kasd_gubergren_no_sea_takimata_6" data-name="Lorem ipsum dolor sit amet, consetetur sadipscing elitr, sed diam nonumy eirmod tempor invidunt ut labore et dolore magna aliquyam erat, sed diam voluptua. At vero eos et accusam et justo duo dolores et ea rebum. Stet clita kasd gubergren, no sea takimata " transform="translate(259 3934)" font-size="12" font-family="TTCommons-Regular, TT Commons"><tspan x="0" y="8">Lorem ipsum dolor sit amet, </tspan><tspan x="0" y="24">consetetur sadipscing elitr, </tspan><tspan x="0" y="40">sed diam nonumy eirmod </tspan></text>
      <text id="Lorem_ipsum_dolor_sit_amet_consetetur_sadipscing_elitr_sed_diam_nonumy_eirmod_tempor_invidunt_ut_labore_et_dolore_magna_aliquyam_erat_sed_diam_voluptua._At_vero_eos_et_accusam_et_justo_duo_dolores_et_ea_rebum._Stet_clita_kasd_gubergren_no_sea_takimata_7" data-name="Lorem ipsum dolor sit amet, consetetur sadipscing elitr, sed diam nonumy eirmod tempor invidunt ut labore et dolore magna aliquyam erat, sed diam voluptua. At vero eos et accusam et justo duo dolores et ea rebum. Stet clita kasd gubergren, no sea takimata " transform="translate(259 4086)" font-size="12" font-family="TTCommons-Regular, TT Commons"><tspan x="0" y="8">Lorem ipsum dolor sit amet, </tspan><tspan x="0" y="24">consetetur sadipscing elitr, </tspan><tspan x="0" y="40">sed diam nonumy eirmod </tspan></text>
      <text id="Lorem_ipsum_dolor_sit_amet_consetetur_sadipscing_elitr_sed_diam_nonumy_eirmod_tempor_invidunt_ut_labore_et_dolore_magna_aliquyam_erat_sed_diam_voluptua._At_vero_eos_et_accusam_et_justo_duo_dolores_et_ea_rebum._Stet_clita_kasd_gubergren_no_sea_takimata_8" data-name="Lorem ipsum dolor sit amet, consetetur sadipscing elitr, sed diam nonumy eirmod tempor invidunt ut labore et dolore magna aliquyam erat, sed diam voluptua. At vero eos et accusam et justo duo dolores et ea rebum. Stet clita kasd gubergren, no sea takimata " transform="translate(259 4240)" font-size="12" font-family="TTCommons-Regular, TT Commons"><tspan x="0" y="8">Lorem ipsum dolor sit amet, </tspan><tspan x="0" y="24">consetetur sadipscing elitr, </tspan><tspan x="0" y="40">sed diam nonumy eirmod </tspan></text>
      <text id="PROCESS" transform="translate(50 3687)" fill="#090909" font-size="14" font-family="TTCommons-Bold, TT Commons" font-weight="700"><tspan x="-28.49" y="0">PROCESS</tspan></text>
      <text id="PROCESS-2" data-name="PROCESS" transform="translate(50 3842)" fill="#090909" font-size="14" font-family="TTCommons-Bold, TT Commons" font-weight="700"><tspan x="-28.49" y="0">PROCESS</tspan></text>
      <text id="PROCESS-3" data-name="PROCESS" transform="translate(50 3996)" fill="#090909" font-size="14" font-family="TTCommons-Bold, TT Commons" font-weight="700"><tspan x="-28.49" y="0">PROCESS</tspan></text>
      <text id="PROCESS-4" data-name="PROCESS" transform="translate(50 4151)" fill="#090909" font-size="14" font-family="TTCommons-Bold, TT Commons" font-weight="700"><tspan x="-28.49" y="0">PROCESS</tspan></text>
      <text id="PROCESS-5" data-name="PROCESS" transform="translate(287 3765)" fill="#090909" font-size="14" font-family="TTCommons-Bold, TT Commons" font-weight="700"><tspan x="-28.49" y="0">PROCESS</tspan></text>
      <text id="PROCESS-6" data-name="PROCESS" transform="translate(287 3919)" fill="#090909" font-size="14" font-family="TTCommons-Bold, TT Commons" font-weight="700"><tspan x="-28.49" y="0">PROCESS</tspan></text>
      <text id="PROCESS-7" data-name="PROCESS" transform="translate(287 4071)" fill="#090909" font-size="14" font-family="TTCommons-Bold, TT Commons" font-weight="700"><tspan x="-28.49" y="0">PROCESS</tspan></text>
      <text id="PROCESS-8" data-name="PROCESS" transform="translate(287 4225)" fill="#090909" font-size="14" font-family="TTCommons-Bold, TT Commons" font-weight="700"><tspan x="-28.49" y="0">PROCESS</tspan></text>
      <text id="_8" data-name="8" transform="translate(194 4263)" fill="#090909" font-size="53" font-family="TTCommons-Bold, TT Commons" font-weight="700"><tspan x="0" y="0">8</tspan></text>
      <rect id="Rectangle_128" data-name="Rectangle 128" width="64" height="3" transform="translate(249 3755) rotate(90)"/>
      <rect id="Rectangle_124" data-name="Rectangle 124" width="63" height="3" transform="translate(249 3909) rotate(90)"/>
      <rect id="Rectangle_122" data-name="Rectangle 122" width="64" height="3" transform="translate(249 4062) rotate(90)"/>
      <rect id="Rectangle_123" data-name="Rectangle 123" width="64" height="3" transform="translate(249 4215) rotate(90)"/>
    </g>
    <text id="WORK_PROCESS" data-name="WORK
PROCESS" transform="translate(207 4861)" fill="#090909" font-size="32" font-family="TTCommons-Bold, TT Commons" font-weight="700"><tspan x="-42.64" y="0">WORK</tspan><tspan x="-65.12" y="43">PROCESS</tspan></text>
  </g>
</svg>
