<svg id="Layer_1" data-name="Layer 1" xmlns="http://www.w3.org/2000/svg" viewBox="0 0 1477.9 982"><title>qwe</title><path d="M1300.24,1020.62c-113.13,0-214.59-9.56-302.34-28.53-82.4-17.8-151.51-43.48-205.42-76.31C737.26,882.14,716,851.55,709.41,840A316.66,316.66,0,0,1,689,796.44c-14.33-36-24.68-62-171.26-198.82-39.32-36.71-63.31-79.21-71.28-126.33-7.31-43.17-.4-89.13,20-132.91,29.11-62.51,83.3-117.11,152.58-153.76,75.21-39.78,161.25-55.19,248.83-44.57,124.12,15.06,345,2.31,638.8-36.86C1728.9,73.56,1916.36,39,1918.22,38.62l2.56,13.76c-1.88.35-189.63,35-412.23,64.68-130.78,17.44-247.85,29.78-347.94,36.67-125.38,8.64-224.45,8.71-294.45.22-185.42-22.5-335.06,78.73-387,190.34-40.87,87.78-23.32,176.38,48.16,243.09C676.15,726.33,687,753.57,702,791.27c4.75,11.92,9.65,24.25,19.6,41.77,25.37,44.7,113.73,109.59,279.26,145.37,227.61,49.19,536.38,34.63,917.75-43.27l2.8,13.72c-206.6,42.2-394.8,66-559.38,70.84Q1330.59,1020.61,1300.24,1020.62Z" transform="translate(-443.61 -38.62)"/><path d="M1360.18,988.71c-104.88,0-198.88-9-280-26.94-75-16.56-138-40.32-187.17-70.61-50.28-31-69.74-59-75.77-69.66a306.45,306.45,0,0,1-18.53-39.11c-14.24-34.88-24.52-60.09-163.07-185.27-36.53-33-59.12-71.5-67.15-114.42-7.35-39.27-1.8-81.42,16.06-121.88,25.79-58.46,75.08-110.29,138.79-145.94C792.22,176.3,871.19,160,951.68,167.81c113,10.89,315.91-2.57,586.78-38.91,204.89-27.49,378.08-58.64,379.81-58.95l2.49,13.77c-1.73.31-175.24,31.52-380.44,59.05-189.61,25.44-445.88,52.85-590,39-170.94-16.52-307,80.43-353,184.74C561.8,447,579.18,527.26,645,586.73,785.91,714.06,796.7,740.5,811.64,777.1a290.45,290.45,0,0,0,17.75,37.49c5.49,9.69,23.41,35.38,70.93,64.65,47.84,29.47,109.36,52.64,182.85,68.85,207.28,45.76,488.37,33,835.45-37.75l2.8,13.71c-188.17,38.39-359.61,59.91-509.57,64Q1385.6,988.72,1360.18,988.71Z" transform="translate(-443.61 -38.62)"/><path d="M1420,956.82c-96.6,0-183.1-8.51-257.65-25.38-67.64-15.31-124.47-37.15-168.93-64.9-45.32-28.3-63-53.83-68.45-63.49a296.35,296.35,0,0,1-16.6-34.7c-13.64-32.56-24.41-58.27-154.9-171.72C688.58,540.19,670,462.49,702.62,383.46c22.43-54.4,66.79-103.48,124.92-138.2a357.3,357.3,0,0,1,207.93-49.69c101.9,6.71,286.79-7.44,534.69-40.95,187.54-25.35,346.58-53.07,348.16-53.35l2.41,13.79c-1.58.28-160.84,28-348.64,53.43-173.53,23.45-407.64,49.61-537.55,41-156.57-10.44-279,82.28-319,179.26-30.15,73.11-13,145,47.13,197.27C895.65,701.65,906.42,727.36,921.32,763a281.91,281.91,0,0,0,15.86,33.19c5,8.73,21.09,31.92,63.7,58.52,43.12,26.93,98.5,48.16,164.6,63.12,187,42.31,440.37,31.46,753.16-32.25l2.79,13.72C1751.69,933.82,1597,953,1461.69,956.31Q1440.57,956.82,1420,956.82Z" transform="translate(-443.61 -38.62)"/><path d="M1479.82,925c-88.29,0-167.28-8-235.19-23.84-60.27-14.06-111-34-150.69-59.2-40.36-25.63-56.2-48.62-61.13-57.32a283.09,283.09,0,0,1-14.64-30.25c-13.6-31.64-24.35-56.64-146.74-158.18-30.82-25.58-50.58-56-58.73-90.4-7.43-31.39-4.65-65.76,8-99.41,19-50.32,58.4-96.68,111-130.54a331.18,331.18,0,0,1,87.11-39.65,325.84,325.84,0,0,1,100.39-12.83c219.85,6.16,793.4-89.76,799.17-90.73l2.32,13.81c-1.44.24-146.45,24.55-316.84,47.79-157.43,21.46-369.37,46.38-485,43.13-140.88-4.11-252,86.55-285,174-25.11,66.54-8.59,128.37,46.52,174.1,125,103.69,136.32,130.05,150.67,163.42A271.1,271.1,0,0,0,1045,777.68c4.42,7.78,18.77,28.48,56.47,52.41,38.38,24.38,87.63,43.68,146.36,57.38,166.64,38.87,392.35,29.87,670.85-26.75l2.79,13.72c-151.32,30.77-289.24,47.64-409.93,50.17Q1495.49,924.94,1479.82,925Z" transform="translate(-443.61 -38.62)"/><path d="M1539.47,893.1c-80,0-151.38-7.5-212.61-22.33C1274,858,1229.4,840,1194.41,817.28c-35.39-22.95-49.42-43.41-53.81-51.14A270,270,0,0,1,1128,740.33c-13.08-29.61-24.37-55.18-138.59-144.62-27.91-21.85-46.21-48.18-54.41-78.24-7.47-27.4-6.09-57.8,4-87.91,15.45-46.19,49.84-89.86,96.82-123,49.25-34.7,108.59-54.41,167.09-55.5,193-3.93,710.37-86.34,715.57-87.18l2.21,13.83c-5.21.83-523.56,83.4-717.51,87.35-127.06,2.36-224.1,88.79-250.91,168.9-19.63,58.68-3.37,112.2,45.78,150.69,117,91.6,128.93,118.65,142.76,150a256.51,256.51,0,0,0,12,24.56c3.88,6.83,16.45,25,49.25,46.3,33.65,21.83,76.76,39.2,128.12,51.64,60.92,14.75,130.83,22.12,209.28,22.12,110,0,236.72-14.47,379.25-43.37l2.79,13.72c-132.9,27-254.07,41.51-360.13,43.27Q1550.32,893.11,1539.47,893.1Z" transform="translate(-443.61 -38.62)"/><path d="M1598.94,861.28c-71.54,0-135.36-7-189.88-20.84-45.53-11.57-84-27.65-114.2-47.81s-42.62-38.18-46.46-45c-4.41-7.76-7.55-14.69-10.59-21.39-12.59-27.73-24.48-53.93-130.42-131-24.92-18.12-41.72-40.32-50-66-7.6-23.68-7.63-49.3-.1-76.13,11.78-42,41.07-83,82.48-115.48,42.94-33.69,95-54.57,146.62-58.8,166.22-14,627.45-83,632.09-83.65l2.07,13.84c-4.64.7-466.31,69.67-633,83.76-109.39,9-196.12,90.49-216.78,164.12-14.19,50.55,1.72,95.65,44.8,127C1224.56,663.22,1237.19,691,1250.56,720.5c2.91,6.42,5.92,13,10,20.27,3.22,5.68,34.88,56.37,151.93,86.1,125.94,32,296.25,26.68,506.2-15.76l2.77,13.72C1807,848,1702.59,860.22,1611.16,861.22Q1605,861.28,1598.94,861.28Z" transform="translate(-443.61 -38.62)"/><path d="M1658.13,829.53c-63,0-119.17-6.54-166.89-19.44-38.16-10.32-70.45-24.49-96-42.12s-35.8-32.94-39.09-38.74-6-11.57-8.54-17c-12.14-26-24.68-52.9-122.21-117.3-42-27.74-59.56-69.49-49.43-117.58,7.93-37.64,32-76,67.79-108,36.53-32.71,81.29-54.91,126-62.51,139.55-24.22,544.72-79.62,548.79-80.18l1.9,13.87c-4.07.56-409,55.93-548.32,80.11-85.13,14.47-167,86.08-182.49,159.65-6.27,29.76-3.82,71.8,43.44,103,100.83,66.57,114.23,95.29,127.18,123.07,2.55,5.45,5,10.6,8,16,2.75,4.84,29.66,48.07,126.52,74.25,47.11,12.74,101.61,19.1,163.11,19.1,76.33,0,163.45-9.79,260.73-29.37l2.76,13.73c-96.08,19.33-183.73,29.25-260.53,29.49Z" transform="translate(-443.61 -38.62)"/><path d="M1716.85,797.85q-3.07,0-6.12,0c-51.89-.44-98.1-6.53-137.36-18.09-80.27-23.65-105.19-61.59-109.37-69-2.4-4.23-4.4-8.39-6.51-12.8-11.13-23.23-25-52.14-113.88-103.44-18.59-10.73-32.13-24.53-40.23-41-7.51-15.29-10.22-32.55-8.05-51.32,3.8-33,22.45-68.67,52.53-100.53,29.92-31.69,67.26-55.45,105.13-66.92,113.11-34.24,451.42-75.12,465.77-76.84l1.67,13.9c-3.5.42-351.44,42.46-463.38,76.34-73,22.08-140.64,93.36-147.82,155.66-3.87,33.58,10.44,60.76,41.38,78.62,92.64,53.47,107.54,84.54,119.5,109.51,2,4.18,3.9,8.14,6.06,11.94,2.28,4,24.46,39.85,101.16,62.44,85.14,25.08,200,23.46,341.43-4.81l2.74,13.73C1846.36,790.24,1777.54,797.85,1716.85,797.85Z" transform="translate(-443.61 -38.62)"/><path d="M1774.7,766.4c-45.37,0-85.23-5.69-119.29-17.07-60.2-20.12-80.22-51-83.62-57-1.55-2.74-3-5.69-4.53-8.8-10.11-20.55-25.39-51.59-105.34-89.29-29.62-14-45.56-37.23-46.1-67.25-.5-27.79,12.49-60.61,36.59-92.4,22.57-29.78,53-55.88,83.4-71.59,86.76-44.82,371.07-72.62,383.13-73.79l1.34,13.94c-2.93.28-293.67,28.7-378,72.29-28.63,14.79-57.31,39.43-78.67,67.61-22.2,29.3-34.19,59-33.74,83.69s13.25,43.13,38.07,54.83c84.38,39.8,101,73.48,111.93,95.77,1.44,2.93,2.8,5.7,4.15,8.08,1.81,3.19,19.35,31.75,75.88,50.64,64.66,21.61,151.78,21.82,258.94.63l2.72,13.74C1867.63,761.07,1818.59,766.4,1774.7,766.4Z" transform="translate(-443.61 -38.62)"/><path d="M1831.06,735.12c-36,0-67.37-5.42-93.81-16.27-38.86-16-54-38.47-57.66-45-.85-1.5-1.71-3.21-2.71-5.19-8.39-16.61-25.84-51.18-96.39-74.71-23.57-7.86-37.81-22.43-42.33-43.29-10-46.18,32.73-114.85,80.1-158.82,60.43-56.08,291.14-70.73,300.94-71.33l.85,14c-2.35.15-235.49,14.92-292.27,67.62-43.37,40.27-84.73,105-75.94,145.6,3.45,15.91,14.27,26.7,33.08,33,76,25.35,95.95,64.83,104.46,81.68.91,1.82,1.7,3.39,2.39,4.59,2.23,3.94,15.19,24.33,50.8,38.95,44.06,18.08,103.36,20.08,176.27,6l2.66,13.75Q1872.38,735.13,1831.06,735.12Z" transform="translate(-443.61 -38.62)"/><path d="M1883.3,704.52c-24.53,0-45.7-5.2-63.21-15.56a87.56,87.56,0,0,1-32.4-33l-.3-.54c-.3-.53-.68-1.27-1.17-2.21-17.37-33.69-46.54-53.71-86.71-59.53-18-2.6-30.53-10.32-37.19-22.92-17.88-33.82,11.26-93.47,37-146.1l1.45-3c14.28-29.27,55.8-49.9,123.4-61.32a651.51,651.51,0,0,1,95.48-8.53l0,14a648.45,648.45,0,0,0-93.36,8.36c-61.9,10.48-101,29-113,53.63l-1.45,3c-23,47.17-51.73,105.88-37.17,133.41,4.52,8.54,13.29,13.65,26.81,15.61,28.64,4.14,52.73,15.14,71.59,32.67a119.85,119.85,0,0,1,25.56,34.29c.38.73.67,1.31.91,1.72l.35.64c9.33,16.73,31.8,41.41,83.1,41.41a200.28,200.28,0,0,0,35.91-3.5l2.51,13.78A213,213,0,0,1,1883.3,704.52Z" transform="translate(-443.61 -38.62)"/><path d="M1919.48,676.16a17.58,17.58,0,0,1-11.77-4.58c-10.24-9-12.77-29.84-13.31-36.1a97.33,97.33,0,0,0-18.61-23.54c-16.53-15.2-35.57-21.53-56.59-18.83-15.07,1.94-26-.73-33.52-8.18-15.08-15-11.34-45.27-6.61-83.59,2-15.77,4-32.08,5-49.21,1.07-18.19,8.47-33.21,22-44.65,37.9-32.08,111.27-24.6,114.38-24.27l-1.5,13.92c-.88-.09-70.59-7.12-103.85,21.05-10.62,9-16.19,20.37-17,34.77-1,17.58-3.17,34.86-5,50.1-4.1,33.16-7.63,61.79,2.58,72,4.22,4.19,11.37,5.57,21.87,4.22,25.12-3.24,48.71,4.64,68.23,22.76a107.65,107.65,0,0,1,21.91,28.43l.62,1.26.08,1.39c.56,8.94,3.63,23.55,8.71,28a3.5,3.5,0,0,0,2.77,1.07l.93,14C1920.27,676.14,1919.87,676.16,1919.48,676.16Zm-.58-279h0l.75-7Z" transform="translate(-443.61 -38.62)"/></svg>